<svg xmlns="http://www.w3.org/2000/svg" xmlns:xlink="http://www.w3.org/1999/xlink" width="284" height="64" viewBox="0 0 284 64">
  <defs>
    <clipPath id="clip-path">
      <rect id="Rectangle_4" data-name="Rectangle 4" width="284" height="64" transform="translate(70.491 16.384)" fill="#fff" stroke="#707070" stroke-width="1"/>
    </clipPath>
    <linearGradient id="linear-gradient" x1="25.402" y1="-27.615" x2="24.806" y2="-26.84" gradientUnits="objectBoundingBox">
      <stop offset="0" stop-color="#0070b6"/>
      <stop offset="1" stop-color="#1d2c5e"/>
    </linearGradient>
    <linearGradient id="linear-gradient-2" x1="18.366" y1="-25.301" x2="18.919" y2="-24.721" xlink:href="#linear-gradient"/>
    <linearGradient id="linear-gradient-3" x1="66.167" y1="-41.114" x2="65.927" y2="-40.298" xlink:href="#linear-gradient"/>
    <linearGradient id="linear-gradient-4" x1="68.303" y1="-39.84" x2="68.204" y2="-39.121" gradientUnits="objectBoundingBox">
      <stop offset="0" stop-color="#125d9e"/>
      <stop offset="1" stop-color="#1d2c5e"/>
    </linearGradient>
    <linearGradient id="linear-gradient-5" x1="34.961" y1="-12.021" x2="33.893" y2="-12.433" xlink:href="#linear-gradient-4"/>
    <linearGradient id="linear-gradient-6" x1="12.458" y1="-29.794" x2="12.728" y2="-30.563" gradientUnits="objectBoundingBox">
      <stop offset="0" stop-color="#105fa1"/>
      <stop offset="1" stop-color="#1d2c5e"/>
    </linearGradient>
    <linearGradient id="linear-gradient-7" x1="9.092" y1="-13.826" x2="9.317" y2="-14.325" xlink:href="#linear-gradient-6"/>
    <linearGradient id="linear-gradient-8" x1="35.805" y1="136.086" x2="36.807" y2="136.086" gradientUnits="objectBoundingBox">
      <stop offset="0" stop-color="#3c5aa6"/>
      <stop offset="0.933" stop-color="#2b73b9"/>
      <stop offset="1" stop-color="#2a75bb"/>
    </linearGradient>
    <linearGradient id="linear-gradient-9" x1="2.143" y1="21.469" x2="3.144" y2="21.469" xlink:href="#linear-gradient-8"/>
  </defs>
  <g id="Mask_Group_1" data-name="Mask Group 1" transform="translate(-70.491 -16.384)" clip-path="url(#clip-path)">
    <g id="pokemon-title" transform="translate(124.205 16)">
      <path id="polygon16" d="M0,19.09,7.867,32.4l3.147-3.016L2.426,16.6Z" transform="translate(0 4.903)" fill="url(#linear-gradient)"/>
      <path id="polygon18" d="M90.459,10.8l-.328,1.77,3.737-1.246L93.409,9.16Z" transform="translate(26.622 2.706)" fill="#0071b9"/>
      <path id="polygon25" d="M76.146,1.508l-12.128,13.9,3.54-.983L79.1,0Z" transform="translate(18.909)" fill="url(#linear-gradient-2)"/>
      <path id="polygon27" d="M123.532,16.2l2.95-1.573L125.63,22.1Z" transform="translate(36.488 4.32)" fill="#1d2c5e"/>
      <path id="polygon29" d="M109.211,20.028l2.688.59,3.343-1.639-2.95-1.114Z" transform="translate(32.258 5.277)" fill="#1d2c5e"/>
      <path id="polygon36" d="M38.765,13.835l.393,8.588L42.9,20.981,41.781,12.2Z" transform="translate(11.45 3.602)" fill="url(#linear-gradient-3)"/>
      <path id="polygon43" d="M112.11,11.437l-2.95,1.639.066,8.85,3.016-1.508.918-4.327Z" transform="translate(32.243 3.378)" fill="url(#linear-gradient-4)"/>
      <path id="polygon45" d="M111.881,20.349,108.6,49.455l5.244-1.049.983-29.631Z" transform="translate(32.078 5.546)" fill="#312370"/>
      <path id="polygon47" d="M118.24,44.195l.131,3.933L128.4,51.34l3.016-1.573-9.9-7.67-9.964-.852-2.95,1.573Z" transform="translate(32.078 12.183)" fill="#21386e"/>
      <path id="polygon49" d="M90.227,39.787l2.426-1.311,1.639,2.884,2.294-1.246.459,3.8,14.619,2.622,2.884-1.639L94.423,32.642,80.132,35.067l-2.753,2.688Z" transform="translate(22.855 9.641)" fill="#21386e"/>
      <path id="polygon56" d="M85.573,10.526l-2.95,1.639L77.379,44.287l2.95-1.573,5.048-18.028Z" transform="translate(22.855 3.109)" fill="url(#linear-gradient-5)"/>
      <path id="polygon58" d="M66.226,14.808l-2.36,1.246.2.787,5.572-3.54L67.21,10.678l-3.147,1.573Z" transform="translate(18.864 3.154)" fill="#1d2c5e"/>
      <path id="polygon60" d="M76.023,46.382l-23.8-11.8,2.95-2.294,23.8,12.455Z" transform="translate(15.426 9.537)" fill="#21386e"/>
      <path id="polygon62" d="M54.77,9.635l-3.606,6.818,3.8-1.114L57.719,8Z" transform="translate(15.112 2.362)" fill="#1d2c5e"/>
      <path id="path69" d="M29.331,31.073l-3.016,2.1a46.947,46.947,0,0,0,1.508,5.769A12.972,12.972,0,0,0,30.642,43.2a11.2,11.2,0,0,0,4.589,2.688,12.782,12.782,0,0,0,10.423-1.77,16.975,16.975,0,0,0,2.753-2.1C45.2,43.987,29.331,31.073,29.331,31.073Z" transform="translate(7.773 9.178)" fill="url(#linear-gradient-6)"/>
      <path id="polygon71" d="M41.888,20l2.753,30.614,11.407-1.639,3.016-1.573L44.969,18.168l-2.884.983-3.016,1.508Z" transform="translate(11.54 5.366)" fill="#1d2c5e"/>
      <path id="polygon78" d="M9.023,28.531,21.741,57.31,33.8,53.442l2.95-1.967L11.711,25.253l-3.147,1.9L6.073,29.842Z" transform="translate(1.794 7.459)" fill="url(#linear-gradient-7)"/>
      <path id="path80" d="M105.466,38.573l.2,1.442a16,16,0,0,0,3.081-.59A16.9,16.9,0,0,0,113.07,37.2c-.393.131-5.9,1.573-7.6,1.377" transform="translate(31.151 10.987)" fill="#1d2c5e"/>
      <path id="path82" d="M72.52,33.144l.459,2.294A18.441,18.441,0,0,0,79.6,32.948c1.311-.787,2.688-1.9,3.147-2.229-.328.2-10.227,2.426-10.227,2.426Z" transform="translate(21.42 9.073)" fill="#1d2c5e"/>
      <g id="g84" transform="translate(3.244 0.927)">
        <path id="path86" d="M28.863,62.666l-.918-2.1L15.883,33.691l-.262-.524-.524.262-.393.2L12.54,34.674c-.328-.524-.852-1.442-1.18-2.032L6.509,24.448,5.263,22.284l2.1-1.311A45.479,45.479,0,0,1,14.048,17.5a37.593,37.593,0,0,1,14.291-3.147,28.841,28.841,0,0,1,4.261.328,13.336,13.336,0,0,1,6.031,2.163,13.268,13.268,0,0,1,5.7,6.293,12.027,12.027,0,0,1,.524,7.342l-.328,1.573,1.311-.918A11.506,11.506,0,0,1,48.6,29.561a13.46,13.46,0,0,1,5.244-1.114,11.271,11.271,0,0,1,4.72.983l.918.393-.066-1.049-.393-4.392-.066-.721-.656.2-2.032.524-.328-7.473,14.947-4.786-.131,5.834,1.114.262,3.278-6.228,9.768,8.653.393.393.393-.393a15.3,15.3,0,0,1,4.72-3.016l.721-.328-.524-.656-1.77-2.163,11.21-12.914,5.9,8.784L96.975,15.2l-1.967,1.049,2.294.066a13.77,13.77,0,0,1,10.62,5.048l.918,1.18.59.721-.983,1.049-.656.721-2.229,2.426-.393.459.459.393,2.1,1.9.787.721.2-1.049.787-4.982.2-1.311.2-1.311,1.18-7.408h11.144l.066-.524.2-1.246h9.7l2.36,14.815.131.983.787-.59a14.624,14.624,0,0,1,3.147-1.7,12.375,12.375,0,0,1,4.589-.852A10.362,10.362,0,0,1,148.3,27c.066,0,.066.066.2.131l.721.262.066-.787.2-1.639.066-.524-.524-.131-1.967-.459-.066-7.736L162.006,19.4l1.114,5.572h1.18l1.18-4.786L178,23.2,165.152,61.814,156.04,58.93l-.066-3.54v-.524l-.524-.066-9.112-1.311.524-4.654.131-1.114-.983.524a6.223,6.223,0,0,1-1.377.59,12.285,12.285,0,0,1-4.523.852,8.785,8.785,0,0,1-1.311-.066l-.787-.066.131.787.656,4.064-13.308-2.36-.721-6.031-.2-1.967-.918,1.7-1.508,2.95-2.819-5.179-.852-1.573-.262,1.77-.59,4-11.669-1.836.918-5.507.2-1.246-1.114.656a23.726,23.726,0,0,1-6.687,2.622,19.452,19.452,0,0,1-2.819.459l-.524.066V53.947L72.982,42.606l-.852-.393V52.9L61.837,54.406l-.459-4.654-.131-1.246-.918.852a15.833,15.833,0,0,1-4.523,3.081,13.4,13.4,0,0,1-5.179,1.114,12.234,12.234,0,0,1-4.917-1.049,10.546,10.546,0,0,1-5.638-6.818,11.576,11.576,0,0,1-.328-4.523l.2-1.639-1.18,1.18A31.9,31.9,0,0,1,36.009,43l-.328.262.131.393L39.286,56.9l.59,2.36-2.294.721-6.49,2.1-2.229.59Zm2.884-35.6a6,6,0,0,0-1.049.066l-.459.066-.656.131.2.656.131.393,1.836,6.1.2.59.262.852.656-.59.459-.393a5.311,5.311,0,0,0,2.032-5.376,2.95,2.95,0,0,0-1.77-2.1,3.635,3.635,0,0,0-1.836-.393Zm49.953.2-1.18,1.114-3.081,2.95-.656.656.852.328,3.278,1.246.983.393L81.7,32.9a14.233,14.233,0,0,1-.2-4.064Zm13.373-3.409a4.436,4.436,0,0,0-3.343,1.508,4.673,4.673,0,0,0-.656,5.31l.262.459.393.721.59-.656.393-.393,4.523-5.113.328-.393.59-.656-.787-.328-.524-.2a8.9,8.9,0,0,0-1.77-.262Z" transform="translate(-5.263 -1.569)" fill="#ffcb05"/>
      </g>
      <path id="path88" d="M77.155,23.785l-.131.131A.141.141,0,0,0,77.155,23.785Z" transform="translate(22.751 7.026)" fill="#7d7f68"/>
      <path id="polygon90" d="M80.491,21.606,82.72,19.18l-.787.787V19.9l-.656.721-2.229,2.36,2.1,1.9.393-2.36,1.049.918Z" transform="translate(23.349 5.665)" fill="#7d7f68"/>
      <path id="polygon92" d="M80.162,21.77l2.1,1.836.787-4.982-.656.721Z" transform="translate(23.677 5.501)" fill="#7d7f68"/>
      <path id="path94" d="M58.553,24.038Z" transform="translate(17.295 7.1)" fill="#7d7f68"/>
      <path id="path96" d="M68.578,27.8c.2.2,0,.066.2.2l1.377-.983c-.2-.131-.393-.328-.59-.459-1.967-1.836-1.442-5.9-.2-8.129a6.169,6.169,0,0,0-.787,9.374" transform="translate(19.724 5.441)" fill="#c7a008"/>
      <path id="path98" d="M86.533,30.329a19.791,19.791,0,0,1-8.26,3.933,8.669,8.669,0,0,1-2.163.328c-5.441.524-9.964-1.967-11.669-5.966a10.191,10.191,0,0,1-.524-1.508,10.735,10.735,0,0,1,1.573-8.85,5.732,5.732,0,0,1,.524-.656c-.066.066-.2.131-.262.2a9.331,9.331,0,0,0-1.7,1.9,10.688,10.688,0,0,0-1.573,8.85A5.87,5.87,0,0,0,63,30.067c1.7,4.064,6.293,6.556,11.669,6.031A14.514,14.514,0,0,0,76.9,35.7a19.409,19.409,0,0,0,8.26-3.933c.524-.459,1.114-.983,1.639-1.508L86.73,30.2c-.131.066-.2.066-.2.131" transform="translate(18.355 5.202)" fill="#c7a008"/>
      <path id="polygon100" d="M51.483,21.472l6.031-8.522-.262-.2-5.834,8.194Z" transform="translate(15.187 3.767)" fill="#c7a008"/>
      <path id="polygon102" d="M83.375,18.623l-.787,4.982-1.049-.918-.393,2.36-2.1-1.9,2.229-2.36.656-.721v.066l.787-.787Z" transform="translate(23.349 5.501)" fill="#c7a008"/>
      <path id="polygon104" d="M77.307,9.139l2.1-.918L75.537,3.239,74.292,5.074Z" transform="translate(21.944 0.957)" fill="#c7a008"/>
      <path id="path106" d="M38.973,18.845c-9.833-11.931-27.468-5.507-33.761.066l.262.459a49.909,49.909,0,0,1,4.589-2.294c6.293-2.688,12.324-3.474,17.11-2.622a11.406,11.406,0,0,1,5.048,1.77A11.091,11.091,0,0,1,37.007,21.4c1.7,3.933.2,9.178-3.8,13.5,5.048-4.654,8.522-9.112,5.769-16.061Z" transform="translate(1.54 3.575)" fill="#c7a008"/>
      <path id="path108" d="M50.732,29.574c-.066-.2-.066-.459-.131-.656a7.9,7.9,0,0,0-3.278-4.589,10.012,10.012,0,0,0-9.506-.59,13.807,13.807,0,0,0-4.72,3.474,13.043,13.043,0,0,1,3.278-2.032,9.836,9.836,0,0,1,9.506.59,7.9,7.9,0,0,1,3.278,4.589,2.329,2.329,0,0,1,.131.656,13.556,13.556,0,0,1,.2,2.294,12.2,12.2,0,0,1-2.294,6.556,8.813,8.813,0,0,1-.721.918,13.833,13.833,0,0,0,2.1-2.294,12.284,12.284,0,0,0,2.36-6.556,14.332,14.332,0,0,0-.2-2.36" transform="translate(9.776 6.743)" fill="#c7a008"/>
      <path id="path110" d="M39.555,26.139S41,24.7,40.932,24.7a2.953,2.953,0,0,0-2.622,1.77,3.88,3.88,0,0,1,1.246-.328" transform="translate(11.316 7.294)" fill="#c7a008"/>
      <path id="path112" d="M41.882,27.722a2.788,2.788,0,0,1,.131.721,1.924,1.924,0,0,1-.262,1.049c.262-.131,2.36-1.18,1.573-3.278.066.131-1.508,1.508-1.442,1.508" transform="translate(12.332 7.743)" fill="#c7a008"/>
      <path id="path114" d="M35.906,29.192c0-.852,1.508-3.016,1.967-3.737-2.36,1.508-3.409,3.54-3.409,5.113a5.184,5.184,0,0,0,5.31,4.982,6.768,6.768,0,0,0,5.507-3.343c-.852.59-3.016,1.9-4.2,1.9a5.013,5.013,0,0,1-5.179-4.917" transform="translate(10.18 7.519)" fill="#c7a008"/>
      <path id="polygon116" d="M51.215,30.592l.066,11.079,1.77.131L52.657,29.15Z" transform="translate(15.127 8.61)" fill="#c7a008"/>
      <path id="polygon118" d="M43.421,14.709v.983L51.812,13.2l.59,10.685,1.442-1.967-.328-10.685Z" transform="translate(12.825 3.318)" fill="#c7a008"/>
      <path id="polygon120" d="M64.908,18.5l-7.8-7.211-.983,2.1,6.949,6.49Z" transform="translate(16.577 3.333)" fill="#c7a008"/>
      <path id="path122" d="M64.4,27.929l-9.243-3.081L53.846,26.29l9.178,3.671a12.537,12.537,0,0,0,4.589,4.851,14.6,14.6,0,0,0,6.424,2.1v4.523l1.442.721.459-6.818L64.4,27.929Z" transform="translate(15.905 7.339)" fill="#c7a008"/>
      <path id="path124" d="M73.984,26.953a8.48,8.48,0,0,0,4.72-3.016c-.852.721-5.048,1.639-5.769,1.836l-1.377,1.508a11.824,11.824,0,0,0,2.426-.328" transform="translate(21.136 7.07)" fill="#c7a008"/>
      <path id="path126" d="M71.768,14.207c-4.2.524-6.359,4.064-6.687,4.458a12.993,12.993,0,0,1,5.638-2.753c5.179-1.246,9.7.328,12.521,3.8l1.77-1.442a13.378,13.378,0,0,0-13.242-4.064" transform="translate(19.223 4.083)" fill="#c7a008"/>
      <path id="path128" d="M82.209,28.778a17.3,17.3,0,0,0,1.9-1.377l-5.572-4.982c-.459.524-.787,1.377-1.311,1.77l4.982,4.589Z" transform="translate(22.811 6.622)" fill="#c7a008"/>
      <path id="path130" d="M105.714,45.544c-5.834-4.851-5.507-15.143-2.622-18.421l-2.557-16.192-5.638.721-.262,1.442H98.9l2.294,14.684a13.538,13.538,0,0,0-3.343,11.734,10.525,10.525,0,0,0,5.441,7.08c.262.131.59.262.852.393l.066.2,1.7.262c-.066.066.131-1.77-.2-1.9Z" transform="translate(27.953 3.229)" fill="#c7a008"/>
      <path id="polygon132" d="M85.89,12.888l-.262,1.442h6.424l1.9,10.423L95.4,23.311,93.887,12.3Z" transform="translate(25.292 3.632)" fill="#c7a008"/>
      <path id="polygon134" d="M94.81,28.654l-2.1,5.376.524,1.442,2.95-8.194Z" transform="translate(27.385 8.057)" fill="#c7a008"/>
      <path id="polygon136" d="M90.263,25.759,88.82,27.2l-1.573,9.7,1.508.524Z" transform="translate(25.77 7.608)" fill="#c7a008"/>
      <path id="path138" d="M114.718,24.059a7.043,7.043,0,0,1,2.1,2.294,8.512,8.512,0,0,1,.983,2.36,10.457,10.457,0,0,1-1.967,8.588,6.967,6.967,0,0,1-.59.721c.721-.656,9.9-7.408.983-16.258-9.833-3.212-13.57,3.147-13.9,3.606a12.045,12.045,0,0,1,3.54-2.1,9.237,9.237,0,0,1,8.85.787" transform="translate(30.225 6.162)" fill="#c7a008"/>
      <path id="path140" d="M108.4,24.165c0,.066,1.442-1.442,1.442-1.442-1.77.066-2.622.918-2.491,1.311a1.643,1.643,0,0,0-.262.459,3.5,3.5,0,0,1,1.311-.328" transform="translate(31.63 6.712)" fill="#c7a008"/>
      <path id="path142" d="M110.672,25.9a2.689,2.689,0,0,1,.066.721,2.134,2.134,0,0,1-.262.918,2.341,2.341,0,0,0,1.573-3.147c.066.131-1.442,1.508-1.377,1.508" transform="translate(32.631 7.205)" fill="#c7a008"/>
      <path id="path144" d="M108.187,33.517a7.237,7.237,0,0,0,5.769-3.278c-4,.852-8.26-5.9-7.867-6.556a7.46,7.46,0,0,0-2.95,4.72,5.061,5.061,0,0,0,5.048,5.113" transform="translate(30.463 6.996)" fill="#c7a008"/>
      <path id="polygon146" d="M124.089,52.994l.918.59,11.538-34.613L127.891,17l-.066,2.032,6.949,1.508Z" transform="translate(36.652 5.022)" fill="#c7a008"/>
      <path id="polygon148" d="M113.512,14.119l.066,1.967,9.178,1.836L126.3,34.7l1.442-1.442-3.409-16.979Z" transform="translate(33.528 4.17)" fill="#c7a008"/>
      <path id="polygon150" d="M119.561,29.226,117,43.517l1.442.459L121,27.783Z" transform="translate(34.56 8.206)" fill="#c7a008"/>
      <path id="polygon152" d="M28.355,47.535l-4.261-15.6L22.52,33.048l4,14.881Z" transform="translate(6.652 9.432)" fill="#c7a008"/>
      <path id="path154" d="M28.212,27.63A31.456,31.456,0,0,1,23.754,31.5l-.787-2.426L21.329,23.7,20.28,20.091,19.231,21.4l1.049,3.606,1.639,5.31.787,2.426a16.918,16.918,0,0,0,5.507-5.113" transform="translate(5.68 5.934)" fill="#c7a008"/>
      <path id="path156" d="M74.308,18.842a4.04,4.04,0,0,0-4.327.787,5.255,5.255,0,0,0-.852,1.246,4.427,4.427,0,0,1,3.933-.524l1.246-1.508Z" transform="translate(20.419 5.479)" fill="#7d7f68"/>
      <path id="path158" d="M26.18,22.964a2.642,2.642,0,0,0-1.311-1.639,4.821,4.821,0,0,0-2.753-.2c.131.524.328,1.18.393,1.442a8.43,8.43,0,0,1,1.246.262,1.957,1.957,0,0,1,1.18,1.442,4.244,4.244,0,0,1-.328,2.884,4.493,4.493,0,0,0,1.573-4.2" transform="translate(6.532 6.208)" fill="#7d7f68"/>
      <g id="g160" transform="translate(25.992 25.43)">
        <g id="g162" transform="translate(0)">
          <path id="path164" d="M31.674,24.17c-.59-3.147-4.72-4.917-8.85-2.688l1.049,3.606,1.639,5.376.787,2.426C29.379,30.988,32.46,28.563,31.674,24.17Zm-4.064,4.917c-.459-1.442-1.442-4.589-1.442-4.589s-.2-.656-.459-1.442a4.015,4.015,0,0,1,2.36.262,1.957,1.957,0,0,1,1.18,1.442c.393,1.7-.2,3.016-1.639,4.327Z" transform="translate(-22.824 -20.485)" fill="#3c5aa6"/>
        </g>
      </g>
      <g id="g166" transform="translate(87.437 22.646)">
        <g id="g168" transform="translate(0 0)">
          <path id="path170" d="M79.678,19.823a5.614,5.614,0,0,0-7.6,8.26,3.6,3.6,0,0,0,.59.459l7.408-8.391A1.738,1.738,0,0,1,79.678,19.823Zm-6.949,5.9a3.587,3.587,0,0,1,.524-4.2,3.672,3.672,0,0,1,4-.918l-4.523,5.113Z" transform="translate(-70.258 -18.335)" fill="#3567b0"/>
        </g>
      </g>
      <path id="polygon172" d="M83.315,17.915l-4.064,3.933,3.868,3.474Z" transform="translate(23.408 5.292)" fill="#1e2d5f"/>
      <path id="path174" d="M113.919,24.968a3.191,3.191,0,0,1,.066.787,3.205,3.205,0,0,1-6.359-.262,2.99,2.99,0,0,1,2.95-2.688,5.292,5.292,0,0,0-6.424,4.392,4.966,4.966,0,0,0,4.982,5.113,5.049,5.049,0,0,0,5.441-4.72,3.466,3.466,0,0,0-.656-2.622" transform="translate(30.762 6.695)" fill="#3466af"/>
      <path id="path183" d="M45.264,27.53a3.007,3.007,0,0,1-3.147,2.819,2.966,2.966,0,0,1-3.147-2.819,2.989,2.989,0,0,1,2.884-2.819,5.414,5.414,0,0,0-6.228,4.72,5.22,5.22,0,0,0,10.423,0,4.633,4.633,0,0,0-.852-2.622c0,.2.066.459.066.721" transform="translate(10.523 7.28)" fill="url(#linear-gradient-8)"/>
      <g id="g185" transform="translate(2.392 0.009)">
        <g id="g187" transform="translate(0 0)">
          <path id="path196" d="M165.15,19.806l-1.311,5.376-1.18-5.966-16.127-3.54.131,8.981,2.426.524-.2,1.639a.064.064,0,0,1-.066-.066,12.322,12.322,0,0,0-10.227-.393,14.328,14.328,0,0,0-3.278,1.77L132.9,12.791H122.211l-.262,1.77H110.674l-1.311,7.867-.918-1.18a14.632,14.632,0,0,0-11.079-5.31l9.571-5.113L100.25.86l-12.062,13.9,2.1,2.557a15.808,15.808,0,0,0-4.917,3.147L75.012,11.284l-3.606,6.883.131-6.687L55.345,16.659l.459,8.653,2.753-.721.393,4.392a12.841,12.841,0,0,0-10.423.131,13.728,13.728,0,0,0-2.884,1.639,12.2,12.2,0,0,0-.59-7.67,14,14,0,0,0-5.9-6.556A13.957,13.957,0,0,0,32.86,14.3c-5.572-.983-12.324,0-18.945,2.819a46.754,46.754,0,0,0-6.752,3.54L4.605,22.3l1.573,2.622,4.851,8.26,1.508,2.491,2.622-1.311.393-.2L27.615,61.04,28.8,63.6l2.688-.852,6.49-2.1,2.884-.918-.721-2.884L36.662,43.6a23.745,23.745,0,0,0,2.753-2.36,12.692,12.692,0,0,0,.328,4.72,11.067,11.067,0,0,0,5.966,7.146,12.87,12.87,0,0,0,10.554,0,14.706,14.706,0,0,0,4.72-3.212l.459,5.31,11.407-1.7V43.275l23.8,11.8V43.733a21.985,21.985,0,0,0,2.884-.459,25.984,25.984,0,0,0,6.883-2.688l-.983,6.1,12.849,2.032L119,44.061l3.343,6.228,2.032-3.933.721,6.49L139.649,55.4l-.787-4.917a14.129,14.129,0,0,0,6.1-.787,8.884,8.884,0,0,0,1.377-.656l-.59,5.244,9.7,1.377.066,4,10.1,3.147,13.177-39.661L165.15,19.806Zm-56.9,5.9.656-.721-.787,4.982-2.1-1.9ZM99.726,5.253l3.54,4.786L93.17,15.02l-.721-1.049c0,.066,7.277-8.719,7.277-8.719Zm-66.8,36.973,4,15.471-6.49,2.1L17.061,29.9c-.721.393-2.1,1.049-3.278,1.639L8.932,23.346a43.766,43.766,0,0,1,6.293-3.278c6.293-2.688,12.324-3.474,17.11-2.622a11.406,11.406,0,0,1,5.048,1.77,11.091,11.091,0,0,1,4.786,5.179c2.36,5.376-1.508,13.111-9.243,17.831Zm29.959-2.753a11.767,11.767,0,0,1-2.36,6.556,13.278,13.278,0,0,1-5.441,4.392c-5.638,2.426-11.275,0-12.783-5.376-1.442-5.179,1.967-11.341,7.408-13.7a9.836,9.836,0,0,1,9.506.59,7.9,7.9,0,0,1,3.278,4.589,2.329,2.329,0,0,1,.131.656A7.065,7.065,0,0,1,62.884,39.472ZM93.629,50.42,69.964,38.62l.066,12.39-6.1.852-.459-5.113a13.667,13.667,0,0,0,1.573-10.554,10.672,10.672,0,0,0-2.884-4.917l-.852-10.423-2.753.721-.131-2.622L68.259,16l.59,10.1L76.06,15.938l7.146,6.752-9.9,10.423,9.309,3.671A13,13,0,0,0,87.2,41.636a14.6,14.6,0,0,0,6.424,2.1V50.42ZM81.37,33.245,78.093,32l3.081-2.95A11.386,11.386,0,0,0,81.37,33.245Zm25.7,3.147a19.791,19.791,0,0,1-8.26,3.933,8.669,8.669,0,0,1-2.163.328c-5.441.524-9.964-1.967-11.669-5.966a10.192,10.192,0,0,1-.524-1.508,10.735,10.735,0,0,1,1.573-8.85,9.331,9.331,0,0,1,1.7-1.9,13.656,13.656,0,0,1,5.9-3.016c5.179-1.246,9.7.328,12.521,3.737L96.317,33.638a6.74,6.74,0,0,0,2.491-.262,8.681,8.681,0,0,0,4.786-3.147l3.933,3.54,1.18,1.049A12.315,12.315,0,0,1,107.068,36.391ZM127.98,50.354l-2.163-14.16L122.8,44l-4.523-9.768h-.066l-1.77,11.341L108.9,44.258l1.049-6.293a10.445,10.445,0,0,0,.852-.852l2.426-2.491-2.36-2.163,2.557-15.078h7.6l1.9,10.423L125.1,15.741h5.441l2.294,14.684a13.538,13.538,0,0,0-3.343,11.734,10.792,10.792,0,0,0,5.441,7.146c.262.131.59.262.852.393l.262,1.9ZM146.794,45.7a11.041,11.041,0,0,1-2.753,1.442,9.981,9.981,0,0,1-5.638.524,9.683,9.683,0,0,1-3.278-1.377,8.324,8.324,0,0,1-3.147-4.72,10.1,10.1,0,0,1,1.246-7.342,13.894,13.894,0,0,1,2.491-3.081,12.738,12.738,0,0,1,3.8-2.36,9.523,9.523,0,0,1,8.916.852,7.044,7.044,0,0,1,2.1,2.294,9.3,9.3,0,0,1,.918,2.36,10.457,10.457,0,0,1-1.967,8.588A8.457,8.457,0,0,1,146.794,45.7Zm17.044,13.373-5.572-1.639-.459-20.584-2.819,15.864-6.1-.983.459-4.589c4-3.343,6.1-8.653,4.917-13.5a10.424,10.424,0,0,0-3.147-5.376l.524-5.376-2.294-.59.066-2.884,10.489,2.1,3.54,16.717,3.606-15.012,8,1.77Z" transform="translate(-4.605 -0.86)" fill="url(#linear-gradient-9)"/>
        </g>
      </g>
      <path id="path198" d="M130.985,43.661h.262c.328,0,.59-.131.59-.459a.532.532,0,0,0-.59-.459h-.262v.918Zm0,1.377h-.393V42.547a2.242,2.242,0,0,1,.721-.066,1.139,1.139,0,0,1,.787.2.681.681,0,0,1,.262.524.574.574,0,0,1-.459.59.594.594,0,0,1,.393.59c.066.393.131.524.131.59h-.393a1.931,1.931,0,0,1-.2-.656c-.066-.328-.2-.459-.524-.459h-.328v1.18Zm.459-3.212a1.9,1.9,0,1,0,1.836,1.9A1.935,1.935,0,0,0,131.444,41.826Zm0-.328a2.156,2.156,0,0,1,2.163,2.229,2.229,2.229,0,1,1-4.458,0A2.31,2.31,0,0,1,131.444,41.5Z" transform="translate(38.147 12.257)"/>
    </g>
  </g>
</svg>
