<svg xmlns="http://www.w3.org/2000/svg" width="325.269" height="325.269" viewBox="0 0 325.269 325.269">
  <g id="pokeball-asset" transform="translate(-1119.35 -1724.634) rotate(45)" opacity="0.3">
    <g id="Group_3" data-name="Group 3" transform="translate(2126 420.96)">
      <path id="Path_1" data-name="Path 1" d="M150.417,767.256A107.959,107.959,0,0,0,258.376,659.3H42.458A107.959,107.959,0,0,0,150.417,767.256Z" transform="translate(-35.417 -652.256)" fill="#edeeef"/>
      <path id="Path_2" data-name="Path 2" d="M149.132,773.011a115.13,115.13,0,0,1-115-115v-7.041h230v7.041A115.13,115.13,0,0,1,149.132,773.011ZM48.456,665.052a100.922,100.922,0,0,0,201.351,0Z" transform="translate(-34.132 -650.971)" fill="#707070"/>
    </g>
    <g id="Group_4" data-name="Group 4" transform="translate(2126 313)">
      <path id="Path_3" data-name="Path 3" d="M150.417,531.63A107.96,107.96,0,0,0,42.458,639.59H258.376A107.96,107.96,0,0,0,150.417,531.63Z" transform="translate(-35.417 -524.589)" fill="#c7c9cb"/>
      <path id="Path_4" data-name="Path 4" d="M264.132,645.345h-230V638.3a115,115,0,1,1,230,0ZM48.456,631.264H249.808a100.922,100.922,0,0,0-201.351,0Z" transform="translate(-34.132 -523.304)" fill="#707070"/>
    </g>
    <g id="Group_5" data-name="Group 5" transform="translate(2174.463 338.158)">
      <path id="Path_5" data-name="Path 5" d="M98.483,584.82a7.041,7.041,0,0,1-4.753-12.237A94.95,94.95,0,0,1,125,553.495a7.041,7.041,0,1,1,4.885,13.207,80.965,80.965,0,0,0-26.652,16.272A7.011,7.011,0,0,1,98.483,584.82Z" transform="translate(-91.441 -553.055)" fill="#fff"/>
    </g>
    <g id="Group_6" data-name="Group 6" transform="translate(2155.036 375.525)">
      <path id="Path_6" data-name="Path 6" d="M75.505,617.3a7.045,7.045,0,0,1-6.287-10.2c1.1-2.183,2.293-4.355,3.558-6.45a7.04,7.04,0,1,1,12.058,7.271c-1.077,1.786-2.1,3.635-3.031,5.5A7.04,7.04,0,0,1,75.505,617.3Z" transform="translate(-68.468 -597.242)" fill="#fff"/>
    </g>
    <g id="Group_7" data-name="Group 7" transform="translate(2204.948 382.625)">
      <path id="Path_9" data-name="Path 9" d="M27.945-3.326A30.534,30.534,0,1,1-2.589,27.208,30.534,30.534,0,0,1,27.945-3.326Z" transform="translate(0 30.496) rotate(-21.809)" fill="#e0e1e3"/>
      <path id="Path_7" data-name="Path 7" d="M163.608,688.477a35.7,35.7,0,1,1,35.7-35.7A35.738,35.738,0,0,1,163.608,688.477Zm0-61.068a25.371,25.371,0,1,0,25.371,25.371A25.4,25.4,0,0,0,163.608,627.41Z" transform="translate(-127.554 -607.405)" fill="#707070"/>
    </g>
    <g id="Group_8" data-name="Group 8" transform="translate(2223.735 406.597)">
      <path id="Path_10" data-name="Path 10" d="M13.235-1.563A14.449,14.449,0,1,1-1.214,12.886,14.449,14.449,0,0,1,13.235-1.563Z" transform="translate(0.222 14.279) rotate(-21.549)" fill="#c7c9cb"/>
      <path id="Path_8" data-name="Path 8" d="M166.972,673.411a17.266,17.266,0,1,1,17.265-17.265A17.285,17.285,0,0,1,166.972,673.411Zm0-28.9A11.633,11.633,0,1,0,178.6,656.145,11.646,11.646,0,0,0,166.972,644.512Z" transform="translate(-149.707 -634.742)" fill="#707070"/>
    </g>
  </g>
</svg>
